<?xml version="1.0" encoding="UTF-8" standalone="no"?>
<!DOCTYPE svg PUBLIC "-//W3C//DTD SVG 1.1//EN" "http://www.w3.org/Graphics/SVG/1.1/DTD/svg11.dtd">
<svg width="100%" height="100%" viewBox="0 0 28 28" version="1.1" xmlns="http://www.w3.org/2000/svg" xmlns:xlink="http://www.w3.org/1999/xlink" xml:space="preserve" xmlns:serif="http://www.serif.com/" style="fill-rule:evenodd;clip-rule:evenodd;stroke-linejoin:round;stroke-miterlimit:2;">
    <g id="Livello-1" serif:id="Livello 1">
    </g>
    <g transform="matrix(1,0,0,1,13.712,24.16)">
        <g id="Livello-2" serif:id="Livello 2">
            <g id="text3715">
                <g>
                    <text x="-8.128px" y="0px" style="font-family:'AkayaTelivigala-Regular', 'AkayaTelivigala';font-size:32px;fill:rgb(57,57,57);">£</text>
                    <path d="M-5.785,-12.38C-5.881,-12.914 -5.928,-13.396 -5.928,-13.824C-5.928,-15.218 -5.59,-16.507 -4.918,-17.693C-4.245,-18.88 -3.333,-19.822 -2.183,-20.519C-1.021,-21.224 0.24,-21.576 1.6,-21.576C3.049,-21.576 4.321,-21.2 5.421,-20.463C6.675,-19.622 7.272,-18.528 7.272,-17.216C7.272,-16.376 7.006,-15.705 6.522,-15.188C5.968,-14.598 5.385,-14.36 4.832,-14.36C4.567,-14.36 4.236,-14.437 3.861,-14.658C3.636,-14.79 3.39,-14.972 3.112,-15.219C2.599,-15.635 2.134,-15.964 1.714,-16.203C1.382,-16.391 0.98,-16.472 0.512,-16.472C-0.032,-16.472 -0.486,-16.342 -0.837,-16.041C-1.13,-15.79 -1.272,-15.466 -1.272,-15.072C-1.272,-14.645 -1.113,-14.158 -0.834,-13.599C-0.824,-13.579 -0.814,-13.559 -0.806,-13.539C-0.633,-13.128 -0.477,-12.737 -0.337,-12.366C1.276,-12.447 2.637,-12.488 3.744,-12.488C4.49,-12.488 4.988,-12.309 5.272,-12.096C5.664,-11.802 5.928,-11.342 5.928,-10.656C5.928,-9.897 5.707,-9.323 5.345,-8.909C4.922,-8.426 4.388,-8.184 3.744,-8.184C3.056,-8.184 1.896,-8.222 0.265,-8.298C0.21,-7.832 0.12,-7.351 -0.007,-6.855C-0.163,-6.251 -0.391,-5.556 -0.695,-4.773C-0.288,-4.606 0.1,-4.473 0.469,-4.373C1.068,-4.212 1.787,-4.136 2.624,-4.136C3.223,-4.136 3.788,-4.2 4.321,-4.331C4.785,-4.445 5.21,-4.667 5.6,-4.992C5.602,-4.994 5.604,-4.996 5.607,-4.998C6.086,-5.39 6.511,-5.512 6.816,-5.512C7.336,-5.512 7.921,-5.232 8.285,-4.349C8.485,-3.863 8.584,-3.362 8.584,-2.848C8.584,-1.766 8.166,-0.805 7.297,0.021C6.493,0.786 5.278,1.224 3.616,1.224C1.775,1.224 -0.357,0.729 -2.773,-0.286C-3.597,0.785 -4.518,1.256 -5.44,1.256C-6.23,1.256 -6.865,0.954 -7.35,0.361C-7.765,-0.146 -8.008,-0.836 -8.008,-1.728C-8.008,-2.881 -7.662,-3.808 -7.015,-4.526C-6.496,-5.101 -5.854,-5.497 -5.084,-5.704C-4.796,-6.502 -4.648,-7.267 -4.648,-8C-4.648,-8.086 -4.651,-8.174 -4.657,-8.264C-4.931,-8.253 -5.192,-8.248 -5.44,-8.248C-6.009,-8.248 -6.44,-8.328 -6.739,-8.448C-7.349,-8.691 -7.688,-9.157 -7.688,-9.888C-7.688,-10.568 -7.485,-11.133 -7.111,-11.592C-6.71,-12.085 -6.255,-12.325 -5.785,-12.38ZM-5.44,0.256C-4.608,0.256 -3.84,-0.341 -3.136,-1.536C-0.555,-0.363 1.696,0.224 3.616,0.224C4.96,0.224 5.957,-0.085 6.608,-0.704C7.259,-1.323 7.584,-2.037 7.584,-2.848C7.584,-3.232 7.509,-3.605 7.36,-3.968C7.211,-4.331 7.029,-4.512 6.816,-4.512C6.667,-4.512 6.475,-4.416 6.24,-4.224C5.728,-3.797 5.168,-3.509 4.56,-3.36C3.952,-3.211 3.307,-3.136 2.624,-3.136C1.685,-3.136 0.88,-3.227 0.208,-3.408C-0.464,-3.589 -1.195,-3.872 -1.984,-4.256C-1.515,-5.365 -1.179,-6.315 -0.976,-7.104C-0.773,-7.893 -0.672,-8.64 -0.672,-9.344C1.461,-9.237 2.933,-9.184 3.744,-9.184C4.085,-9.184 4.368,-9.312 4.592,-9.568C4.816,-9.824 4.928,-10.187 4.928,-10.656C4.928,-10.955 4.843,-11.168 4.672,-11.296C4.501,-11.424 4.192,-11.488 3.744,-11.488C2.485,-11.488 0.896,-11.435 -1.024,-11.328C-1.216,-11.883 -1.451,-12.491 -1.728,-13.152C-2.091,-13.877 -2.272,-14.517 -2.272,-15.072C-2.272,-15.776 -2.011,-16.352 -1.488,-16.8C-0.965,-17.248 -0.299,-17.472 0.512,-17.472C1.173,-17.472 1.739,-17.339 2.208,-17.072C2.677,-16.805 3.2,-16.437 3.776,-15.968C3.989,-15.776 4.187,-15.627 4.368,-15.52C4.549,-15.413 4.704,-15.36 4.832,-15.36C5.152,-15.36 5.472,-15.531 5.792,-15.872C6.112,-16.213 6.272,-16.661 6.272,-17.216C6.272,-18.197 5.803,-19.003 4.864,-19.632C3.925,-20.261 2.837,-20.576 1.6,-20.576C0.427,-20.576 -0.661,-20.272 -1.664,-19.664C-2.667,-19.056 -3.461,-18.235 -4.048,-17.2C-4.635,-16.165 -4.928,-15.04 -4.928,-13.824C-4.928,-13.141 -4.789,-12.309 -4.512,-11.328L-5.568,-11.392C-5.845,-11.392 -6.101,-11.248 -6.336,-10.96C-6.571,-10.672 -6.688,-10.315 -6.688,-9.888C-6.688,-9.632 -6.581,-9.461 -6.368,-9.376C-6.155,-9.291 -5.845,-9.248 -5.44,-9.248C-4.949,-9.248 -4.405,-9.269 -3.808,-9.312C-3.701,-8.843 -3.648,-8.405 -3.648,-8C-3.648,-6.997 -3.883,-5.941 -4.352,-4.832C-5.141,-4.725 -5.781,-4.4 -6.272,-3.856C-6.763,-3.312 -7.008,-2.603 -7.008,-1.728C-7.008,-1.109 -6.864,-0.624 -6.576,-0.272C-6.288,0.08 -5.909,0.256 -5.44,0.256Z" style="fill:white;fill-opacity:0.33;"/>
                </g>
            </g>
        </g>
    </g>
</svg>
